<svg width="430" height="284" viewBox="0 0 430 284" fill="none" xmlns="http://www.w3.org/2000/svg">
<rect x="0.5" width="429" height="284" rx="8" fill="#D1D5DB"/>
<path fill-rule="evenodd" clip-rule="evenodd" d="M225.87 134.16C227.894 134.16 229.535 132.441 229.535 130.322C229.535 128.202 227.894 126.484 225.87 126.484C223.846 126.484 222.205 128.202 222.205 130.322C222.205 132.441 223.846 134.16 225.87 134.16ZM215.726 157.4H193.571C192.794 157.4 192.314 156.552 192.713 155.886L207.829 130.687C208.211 130.05 209.128 130.033 209.526 130.66C211.484 133.741 216.409 141.502 220.599 148.197L225.144 140.576C225.511 139.96 226.374 139.94 226.784 140.538L237.246 155.817C237.705 156.487 237.259 157.404 236.469 157.413L226.317 157.516L215.726 157.4Z" fill="#E5E7EB"/>
</svg>
